Coordinates
version=1
nRows=19
nColumns=24
inDegrees=yes

Units are S.I. units (second, meters, Newtons, ...)
Angles are in degrees.

endheader
time	pelvis_tilt	pelvis_list	pelvis_rotation	pelvis_tx	pelvis_ty	pelvis_tz	hip_flexion_r	hip_adduction_r	hip_rotation_r	knee_angle_r	ankle_angle_r	subtalar_angle_r	mtp_angle_r	hip_flexion_l	hip_adduction_l	hip_rotation_l	knee_angle_l	ankle_angle_l	subtalar_angle_l	mtp_angle_l	lumbar_extension	lumbar_bending	lumbar_rotation
      0.68616667	      0.91296778	     -0.58656539	      3.93880824	     -0.43582900	      1.04869027	      0.30889121	     15.10763068	      1.49201610	     -3.29368843	    -30.09408432	     17.27119546	     -5.67728098	      4.64422926	     17.54517457	     -6.01148523	     -6.20689794	    -76.15043511	      5.40253937	      7.93430921	      3.57328504	    -12.25292921	      3.24529983	      1.64189025
      0.69033333	      0.90897955	     -0.42804386	      3.89772898	     -0.42990794	      1.05019974	      0.30865812	     14.51764128	      1.33184045	     -3.27247690	    -29.63806118	     17.38276538	     -5.53824465	      4.66176481	     18.09506330	     -5.75146915	     -6.44665092	    -75.71892729	      5.75357043	      8.40182577	      3.60012666	    -12.22223040	      3.11418575	      1.69606453
      0.69450000	      0.90326115	     -0.26218289	      3.84443474	     -0.42398000	      1.05167878	      0.30842562	     13.92802899	      1.16322441	     -3.24497251	    -29.17679974	     17.48790580	     -5.39954618	      4.68107326	     18.62555855	     -5.48691666	     -6.69831246	    -75.21775823	      6.09649154	      8.90051692	      3.63193952	    -12.18978645	      2.97043150	      1.75820708
      0.69866667	      0.91869503	     -0.11149200	      3.78201378	     -0.41803308	      1.05318954	      0.30819580	     13.30498144	      1.01335797	     -3.21615143	    -28.68669631	     17.60073056	     -5.24375874	      4.71262205	     19.11080441	     -5.24505775	     -6.95050843	    -74.64312208	      6.43493964	      9.42620405	      3.68108651	    -12.17618348	      2.84231254	      1.85877860
      0.70283333	      0.92196238	      0.04296851	      3.71580680	     -0.41209423	      1.05464120	      0.30796040	     12.69498310	      0.85937666	     -3.17798956	    -28.19147517	     17.67399460	     -5.12259541	      4.74378147	     19.59425767	     -4.99973585	     -7.20253237	    -74.01155494	      6.76840569	      9.96521584	      3.73481861	    -12.15354312	      2.70563761	      1.93941227
      0.70700000	      0.90474070	      0.21744310	      3.63949332	     -0.40615921	      1.05603015	      0.30772278	     12.11298935	      0.68002075	     -3.13397053	    -27.70490995	     17.71186370	     -5.01679724	      4.76350013	     20.07770721	     -4.72871927	     -7.45377363	    -73.30826853	      7.08409346	     10.49538252	      3.77414202	    -12.11224789	      2.54360833	      1.98787406
      0.71116667	      0.94229502	      0.36017043	      3.55521081	     -0.40020719	      1.05748122	      0.30749878	     11.45648746	      0.54318045	     -3.07997606	    -27.17893723	     17.79282720	     -4.89478659	      4.80091874	     20.48380381	     -4.50942082	     -7.71050915	    -72.55031795	      7.40419109	     11.04966452	      3.83956538	    -12.12516242	      2.42039105	      2.10673218
      0.71533333	      0.92690914	      0.53009930	      3.46487696	     -0.39427355	      1.05879882	      0.30726517	     10.87210735	      0.37016868	     -3.02159721	    -26.68011851	     17.80875530	     -4.80407946	      4.82197899	     20.92865101	     -4.24727506	     -7.95357158	    -71.72723224	      7.69728150	     11.55976224	      3.88284882	    -12.08543596	      2.26104876	      2.16389761
      0.71950000	      0.92984651	      0.69519141	      3.36585791	     -0.38833702	      1.06009558	      0.30704068	     10.26639979	      0.20408373	     -2.95687912	    -26.17329025	     17.85377077	     -4.70328353	      4.84637535	     21.33404292	     -4.00045627	     -8.20049064	    -70.84862954	      7.98597750	     12.06735780	      3.93045788	    -12.06608622	      2.11067443	      2.24940875
      0.72366667	      0.94937790	      0.83625688	      3.26180465	     -0.38239247	      1.06136393	      0.30683404	      9.63668700	      0.06792986	     -2.88113310	    -25.64606910	     17.90710308	     -4.60913936	      4.88678680	     21.70752980	     -3.79000118	     -8.44224058	    -69.92485034	      8.26770510	     12.54387762	      4.00401450	    -12.06250709	      1.97115824	      2.39798301
      0.72783333	      0.91636278	      1.00016991	      3.15641619	     -0.37647484	      1.06248803	      0.30660287	      9.08219014	     -0.10133869	     -2.81150182	    -25.15254482	     17.90450194	     -4.53669687	      4.90701342	     22.12195426	     -3.53913914	     -8.66102304	    -68.94312677	      8.52493996	     12.96245517	      4.04701678	    -12.00220770	      1.81328264	      2.46128188
      0.73200000	      0.94374964	      1.14601798	      3.04143901	     -0.37055528	      1.06365915	      0.30639702	      8.45223531	     -0.24445263	     -2.72763674	    -24.63052352	     17.95105381	     -4.46141512	      4.94377651	     22.45113743	     -3.32592257	     -8.88616574	    -67.91187973	      8.77815477	     13.36624883	      4.11610572	    -12.00909571	      1.66820840	      2.60848677
      0.73616667	      0.89229003	      1.30939417	      2.92887467	     -0.36464396	      1.06463436	      0.30616655	      7.92670112	     -0.41662705	     -2.64993849	    -24.14640179	     17.94538998	     -4.39508954	      4.96307108	     22.85101208	     -3.07626428	     -9.07953317	    -66.82797521	      9.00647868	     13.68632111	      4.15714518	    -11.92988424	      1.50926775	      2.68183264
      0.74033333	      0.86475709	      1.45371876	      2.81656162	     -0.35874664	      1.06557805	      0.30594507	      7.37372647	     -0.56527624	     -2.57097266	    -23.65270595	     17.95695281	     -4.33219072	      4.98105180	     23.21274728	     -2.85354183	     -9.25804600	    -65.70444640	      9.22793450	     13.97302888	      4.19612382	    -11.87684208	      1.36366935	      2.77742225
      0.74450000	      0.83338434	      1.59245901	      2.70115372	     -0.35286103	      1.06644439	      0.30571956	      6.83060527	     -0.71032967	     -2.48889479	    -23.16473438	     17.97389021	     -4.27769511	      4.99925086	     23.56274690	     -2.63770733	     -9.42089506	    -64.53588750	      9.43142423	     14.19982995	      4.23590946	    -11.81989084	      1.22827331	      2.89525109
      0.74866667	      0.82497649	      1.73463127	      2.57674939	     -0.34697956	      1.06728970	      0.30552529	      6.26366298	     -0.85691521	     -2.40253663	    -22.67350508	     18.01623704	     -4.22473065	      5.02843547	     23.86633302	     -2.42768745	     -9.58433910	    -63.31594086	      9.60516087	     14.35921330	      4.29784964	    -11.79008075	      1.07364382	      3.07818493
      0.75283333	      0.77244879	      1.86003599	      2.46400776	     -0.34113108	      1.06796648	      0.30529425	      5.75648964	     -0.99161310	     -2.32624448	    -22.20187899	     18.03103319	     -4.17678918	      5.05427705	     24.21326108	     -2.22276837	     -9.70061753	    -62.06565616	      9.77309240	     14.46055942	      4.35820171	    -11.71351146	      0.94377529	      3.21741680
      0.75700000	      0.70225577	      1.98900548	      2.35703464	     -0.33529531	      1.06855605	      0.30505055	      5.27493577	     -1.13481183	     -2.26405633	    -21.74152066	     18.02463532	     -4.12312140	      5.06727498	     24.56120776	     -2.00624866	     -9.78536438	    -60.76608299	      9.93431218	     14.51196245	      4.39366203	    -11.62123978	      0.81655949	      3.30310333
      0.76116667	      0.65734985	      2.11095996	      2.24334623	     -0.32947579	      1.06911410	      0.30482807	      4.76618578	     -1.26851851	     -2.19448108	    -21.27476843	     18.07031105	     -4.05736300	      5.09364661	     24.86432335	     -1.80442126	     -9.85928130	    -59.42298631	     10.04944575	     14.46674577	      4.46388356	    -11.56435761	      0.67877864	      3.48725025
